<?xml version="1.0"?>
<svg xmlns="http://www.w3.org/2000/svg" height="512px" viewBox="0 0 512.08148 512" width="512px" class=""><g><path d="m308.054688 399.929688c-2.085938-.882813-4.4375-.898438-6.535157-.046876-2.097656.851563-3.773437 2.5-4.652343 4.585938-2.324219 5.496094-5.183594 10.75-8.535157 15.6875-3.316406 4.898438-7.09375 9.46875-11.28125 13.652344-2.21875 2.140625-3.105469 5.3125-2.324219 8.296875.777344 2.984375 3.109376 5.316406 6.09375 6.09375 2.980469.78125 6.15625-.105469 8.296876-2.324219 4.957031-4.96875 9.429687-10.398438 13.355468-16.214844 3.964844-5.855468 7.347656-12.082031 10.101563-18.59375 1.808593-4.324218-.210938-9.296875-4.519531-11.136718zm0 0" data-original="#000000" class="active-path" data-old_color="#000000" fill="#CF0B48"/><path d="m312.574219 326.023438c-2.753907-6.503907-6.132813-12.726563-10.09375-18.578126-11.886719-17.578124-28.601563-31.351562-48.128907-39.660156-13.464843-5.695312-27.933593-8.625-42.554687-8.621094-4.710937 0-8.53125 3.820313-8.53125 8.535157 0 4.710937 3.820313 8.53125 8.53125 8.53125 12.332031-.007813 24.539063 2.464843 35.890625 7.269531 16.5 7.011719 30.621094 18.648438 40.652344 33.503906 3.355468 4.933594 6.214844 10.1875 8.535156 15.683594 2.355469 5.570312 4.15625 11.359375 5.375 17.28125 1.246094 6.117188 1.875 12.347656 1.878906 18.59375 0 4.710938 3.820313 8.53125 8.53125 8.53125 4.714844 0 8.535156-3.820312 8.535156-8.53125 0-7.394531-.746093-14.769531-2.226562-22.015625-1.449219-7.035156-3.589844-13.910156-6.394531-20.523437zm0 0" data-original="#000000" class="active-path" data-old_color="#000000" fill="#CF0B48"/><path d="m469.121094 241.542969c-4.625-.898438-9.105469 2.125-10.003906 6.75-2.191407 11.320312-6.457032 22.136719-12.585938 31.90625-1.621094 2.582031-1.746094 5.832031-.324219 8.527343 1.425781 2.695313 4.179688 4.429688 7.226563 4.542969 3.046875.117188 5.921875-1.402343 7.546875-3.980469 7.253906-11.554687 12.300781-24.351562 14.890625-37.746093.894531-4.625-2.125-9.101563-6.75-10zm0 0" data-original="#000000" class="active-path" data-old_color="#000000" fill="#CF0B48"/><path d="m428.929688 138.546875c-5.941407-4.007813-12.25-7.4375-18.84375-10.242187-13.652344-5.769532-28.328126-8.742188-43.152344-8.738282-4.714844 0-8.535156 3.820313-8.535156 8.535156 0 4.710938 3.820312 8.53125 8.535156 8.53125 12.53125-.007812 24.9375 2.5 36.480468 7.375 16.765626 7.140626 31.117188 18.964844 41.34375 34.046876 3.394532 5.027343 6.296876 10.371093 8.660157 15.957031 2.40625 5.667969 4.238281 11.5625 5.46875 17.597656 1.039062 4.515625 5.488281 7.378906 10.027343 6.453125 4.539063-.929688 7.507813-5.308594 6.691407-9.867188-1.464844-7.136718-3.628907-14.113281-6.46875-20.820312-8.425781-19.800781-22.386719-36.75-40.207031-48.8125zm0 0" data-original="#000000" class="active-path" data-old_color="#000000" fill="#CF0B48"/><path d="m145.066406 51.300781c10.011719 0 19.957032 1.628907 29.449219 4.820313 4.632813 1.566406 9.140625 3.488281 13.480469 5.746094 4.320312 2.261718 8.464844 4.847656 12.390625 7.738281 11.855469 8.699219 21.515625 20.046875 28.210937 33.132812 2.25 4.394531 4.148438 8.960938 5.675782 13.65625 1.140624 3.519531 4.417968 5.902344 8.117187 5.902344.890625.003906 1.777344-.136719 2.628906-.417969 4.472657-1.453125 6.929688-6.253906 5.484375-10.734375-1.792968-5.578125-4.039062-11-6.714844-16.210937-10.589843-20.644532-27.320312-37.492188-47.890624-48.222656-5.128907-2.6875-10.460938-4.96875-15.949219-6.828126-11.242188-3.757812-23.023438-5.667968-34.882813-5.648437-4.710937 0-8.53125 3.820313-8.53125 8.535156 0 4.710938 3.820313 8.53125 8.53125 8.53125zm0 0" data-original="#000000" class="active-path" data-old_color="#000000" fill="#CF0B48"/><path d="m21.476562 374.441406c12.742188 7.296875 12.714844 13.816406 12.664063 24.628906v1.960938c0 4.265625-4.929687 8.960938-10.648437 14.414062-9.914063 9.453126-23.492188 22.414063-23.492188 45.457032 0 51.199218 49.597656 51.199218 68.265625 51.199218 22.3125-.414062 42.902344-12.070312 54.742187-30.984374 34.726563 27.539062 80.25 37.4375 123.277344 26.804687 43.027344-10.636719 78.699219-40.605469 96.59375-81.152344 25.890625-.199219 27.195313 7.269531 29.011719 20.476563.519531 6.039062 2.039063 11.953125 4.488281 17.496094 15.710938 31.417968 38.339844 47.359374 67.355469 47.359374 42.75 0 68.265625-22.332031 68.265625-59.734374.699219-14.179688-3.105469-28.21875-10.863281-40.105469-4.144531-5.695313-6.320313-12.585938-6.203125-19.628907.753906-6.597656 3.050781-12.925781 6.707031-18.472656 8.703125-16.367187 20.410156-38.664062-5.972656-77.003906 29.183593-55.996094 18.625-124.453125-26.070313-169.054688.058594-5.691406 2.328125-21.488281 12.007813-26.625 18.398437-10.058593 30-29.207031 30.394531-50.175781.59375-13.8125-4.660156-27.234375-14.464844-36.980469-9.808594-9.742187-23.269531-14.902343-37.078125-14.21875-29.378906 0-45.121093 10.605469-58.09375 39.132813-4.835937 8.121094-13.773437 12.886719-23.210937 12.375-13.207032.261719-26.402344-5.28125-30.222656-12.742187-10.25-19.933594-19.910157-38.765626-59.0625-38.765626-26.964844 0-44.125 13.226563-49.046876 36.582032-56.878906-50.222656-142.875-48.027344-197.117187 5.027344-54.246094 53.054687-58.339844 138.980468-9.390625 196.957031 0 .246093-.144531.46875-.144531.726562 0 2.039063.058593 4.113281.128906 6.234375 1.554687 10.703125-.9375 21.597656-6.988281 30.558594-2.769532 3.550781-5.734375 6.941406-8.875 10.164062-11.152344 9.414063-17.839844 23.078126-18.433594 37.65625v2.5625c0 19.054688-.0664062 35.539063 21.476562 47.871094zm190.320313 120.59375c-50.269531.046875-95.785156-29.722656-115.882813-75.800781-20.097656-46.078125-10.957031-99.6875 23.28125-136.5 2.597657-2.8125 5.3125-5.480469 8.140626-8.011719l1.160156-1.058594c3.007812-2.648437 6.136718-5.136718 9.386718-7.46875.21875-.160156.433594-.332031.664063-.496093 17.652344-12.613281 38.25-20.480469 59.820313-22.851563.117187 0 .21875 0 .339843-.050781 3.15625-.332031 6.359375-.417969 9.550781-.503906 1.203126 0 2.371094-.1875 3.574219-.1875 3.292969 0 6.519531.25 9.746094.496093 2.488281.222657 5.042969.484376 7.867187.851563h.160157c3.789062.535156 7.515625 1.230469 11.179687 2.082031h.121094c3.632812.855469 7.195312 1.851563 10.683594 2.996094.40625.136719.800781.308594 1.203125.445312 3.121093 1.058594 6.195312 2.199219 9.199219 3.480469 18.269531 7.941407 34.421874 20.0625 47.152343 35.386719l.488281.605469c2.285157 2.785156 4.4375 5.675781 6.476563 8.644531.324219.480469.65625.957031.972656 1.433594 1.765625 2.65625 3.414063 5.394531 4.972657 8.183594.472656.855468.964843 1.707031 1.417968 2.5625 1.253906 2.355468 2.371094 4.785156 3.480469 7.21875.597656 1.320312 1.238281 2.617187 1.785156 3.96875.726563 1.765624 1.332031 3.589843 1.980469 5.390624 4.570312 12.742188 7.070312 26.132813 7.40625 39.664063v.042969c0 .988281.152344 1.960937.152344 2.96875-.050782 69.835937-56.644532 126.441406-126.480469 126.507812zm274.773437-128.855468c-5.085937 7.945312-8.078124 17.042968-8.703124 26.453124-.128907 10.140626 2.894531 20.070313 8.652343 28.417969 6.152344 9.238281 9.105469 20.238281 8.414063 31.316407 0 35.269531-27.84375 42.667968-51.199219 42.667968-22.289063 0-39.332031-12.417968-52.054687-37.949218-1.574219-3.886719-2.535157-7.996094-2.851563-12.175782-2.386719-17.492187-7.378906-33.28125-39.585937-35.039062 3.375-11.359375 5.324218-23.09375 5.804687-34.933594 4.148437.382812 8.125.628906 11.945313.628906 47.425781-.027344 91.835937-23.261718 118.90625-62.207031 15.136718 25.402344 8.121093 38.765625.671874 52.820313zm-119.636718-7.679688c-4.050782-.011719-8.097656-.238281-12.125-.679688 0-.148437 0-.285156-.050782-.429687-.25-3.191406-.640624-6.339844-1.09375-9.460937-.179687-1.273438-.367187-2.5625-.582031-3.789063-.46875-2.75-1.003906-5.472656-1.636719-8.167969-.410156-1.792968-.851562-3.558594-1.367187-5.324218-.605469-2.191407-1.183594-4.394532-1.882813-6.535157-1.023437-3.167969-2.1875-6.257812-3.414062-9.320312-.316406-.757813-.554688-1.542969-.855469-2.296875-12.492187-29.59375-34.621093-54.09375-62.796875-69.527344-1.097656-.605469-2.226562-1.152344-3.335937-1.707031-2.464844-1.261719-4.957031-2.492188-7.5-3.617188-1.980469-.855469-3.984375-1.707031-5.972657-2.511719-1.597656-.621093-3.199218-1.203124-4.820312-1.765624-2.730469-.964844-5.480469-1.875-8.277344-2.679688-.554687-.152344-1.121094-.28125-1.707031-.425781-3.414063-.9375-6.878906-1.835938-10.402344-2.558594.058594-2.628906.222657-5.242187.433594-7.84375.113281-1.398437.136719-2.824219.300781-4.207031.503906-4.4375 1.238282-8.847656 2.199219-13.207032.136719-.589843.34375-1.144531.480469-1.707031.851562-3.6875 1.894531-7.332031 3.085937-10.90625.632813-1.886719 1.410157-3.695312 2.125-5.53125.855469-2.191406 1.707031-4.386719 2.648438-6.519531.9375-2.132812 2.019531-4.128906 3.085937-6.167969.921875-1.777343 1.84375-3.542969 2.84375-5.273437 1.238282-2.109375 2.558594-4.164063 3.890625-6.195313 1.023438-1.554687 2.074219-3.089843 3.164063-4.589843 1.46875-2.023438 2.980468-4.011719 4.558594-5.976563 1.175781-1.433594 2.414062-2.824219 3.660156-4.214844 1.648437-1.851562 3.292968-3.695312 5.042968-5.445312 1.410157-1.398438 2.917969-2.710938 4.394532-4.050781 42.308594-38.398438 104.953125-44.082032 153.484375-13.925782 48.527343 30.15625 71.171875 88.84375 55.476562 143.78125-15.691406 54.9375-65.917969 92.804688-123.054687 92.777344zm-77.066406-341.332031c28.726562 0 34.136718 10.480469 43.871093 29.5 6.902344 13.429687 25.820313 22.3125 45.816407 22.007812 16.082031.773438 31.109374-7.996093 38.347656-22.375 10.148437-22.304687 20.089844-29.132812 42.554687-29.132812 9.25-.570313 18.300781 2.828125 24.882813 9.347656 6.582031 6.515625 10.074218 15.535156 9.59375 24.785156-.296875 14.691407-8.4375 28.09375-21.332032 35.132813-10.265624 6.253906-17.324218 16.644531-19.355468 28.492187-49.359375-37.574219-117.207032-39.410156-168.523438-4.558593-5.332031-21.347657-15.480468-41.199219-29.664062-58.023438.09375-.34375.160156-.691406.207031-1.042969 0-22.960937 10.988281-34.132812 33.601563-34.132812zm-144.800782 0c61.566406.308593 114.277344 44.214843 125.714844 104.710937-1.417969 1.265625-2.671875 2.65625-4.027344 3.960938-1.359375 1.304687-2.5625 2.40625-3.738281 3.660156-2.160156 2.21875-4.214844 4.496094-6.214844 6.828125-1.058593 1.226563-2.09375 2.472656-3.113281 3.738281-1.953125 2.449219-3.824219 4.949219-5.613281 7.5-.933594 1.332032-1.828125 2.679688-2.714844 4.042969-1.707031 2.5625-3.277344 5.179687-4.777344 7.851563-.855469 1.535156-1.707031 3.089843-2.484375 4.652343-1.339844 2.558594-2.621094 5.195313-3.796875 7.859375-.804687 1.816406-1.535156 3.660156-2.261719 5.511719-.992187 2.515625-1.953124 5.050781-2.800781 7.621094-.691406 2.105469-1.296875 4.265625-1.894531 6.382812-.679688 2.449219-1.347656 4.898438-1.902344 7.378907-.511718 2.3125-.921875 4.667968-1.320312 7.023437-.402344 2.355469-.855469 4.847656-1.128906 7.304687-.273438 2.457032-.453126 4.863282-.621094 7.320313-.113282 1.65625-.367188 3.277344-.417969 4.941406-3.542969-.289062-6.878906-.433593-10.15625-.433593-4.796875.003906-9.589844.25-14.359375.742187-33.339844 3.355469-64.445312 18.304687-87.894531 42.238281-61.253907-17.664062-100.152344-77.730468-91.214844-140.851562 8.941406-63.117188 62.988281-110.023438 126.738281-109.984375zm-128 306.839843c0-11.320312 5.785156-17.464843 13.789063-25.957031 3.578125-3.660156 6.953125-7.519531 10.105469-11.554687 6.667968-8.882813 10.3125-19.671875 10.394531-30.777344 13.632812 11.566406 29.296875 20.503906 46.1875 26.359375-43.371094 56.867187-38.015625 137.042969 12.535156 187.636719-8.644531 15.082031-24.441406 24.648437-41.8125 25.320312-42.664063 0-51.199219-13.058594-51.199219-34.132812 0-15.746094 9.25-24.578125 18.203125-33.109375 7.832031-7.476563 15.929688-15.207031 15.929688-26.761719v-1.878906c2.183593-16.378906-6.378907-32.3125-21.246094-39.523438-12.347656-7.101562-12.886719-13.570312-12.886719-33.050781zm0 0" data-original="#000000" class="active-path" data-old_color="#000000" fill="#CF0B48"/></g> </svg>
