<?xml version="1.0"?>
<svg xmlns="http://www.w3.org/2000/svg" xmlns:xlink="http://www.w3.org/1999/xlink" version="1.1" id="Capa_1" x="0px" y="0px" viewBox="0 0 454.074 454.074" style="enable-background:new 0 0 454.074 454.074;" xml:space="preserve" width="512px" height="512px"><g><path d="M451.493,171.772L230.456,18.442c-2.057-1.428-4.783-1.428-6.84,0L2.581,171.772c-2.156,1.495-3.09,4.218-2.306,6.722  c0.783,2.504,3.103,4.208,5.726,4.208h28.781v242H12.537c-3.314,0-6,2.687-6,6s2.686,6,6,6h429c3.314,0,6-2.687,6-6s-2.686-6-6-6  h-22.245v-242h28.781c2.624,0,4.943-1.704,5.726-4.208C454.583,175.99,453.649,173.268,451.493,171.772z M46.782,424.702v-242h21  v242H46.782z M183.085,90.372h87.902l28.111,19.5H154.975L183.085,90.372z M200.384,78.372l26.652-18.488l26.652,18.488H200.384z   M137.676,121.872h178.721l28.111,19.5H109.565L137.676,121.872z M92.266,153.372h269.541l24.983,17.33H67.284L92.266,153.372z   M149.037,325.372v-7h156v7H149.037z M311.037,337.372c3.313,0,6-2.687,6-6v-19c0-3.313-2.687-6-6-6h-168c-3.313,0-6,2.687-6,6v19  c0,3.313,2.687,6,6,6h68.5v87.33H79.782V250.698l67.995-67.996h158.52l67.995,67.996v174.004H242.537v-87.33H311.037z   M94.747,182.702l-14.965,14.965v-14.965H94.747z M79.782,214.637l31.935-31.935h19.09l-51.025,51.026V214.637z M342.357,182.702  l31.935,31.935v19.091l-51.025-51.026H342.357z M374.292,197.667l-14.965-14.965h14.965V197.667z M223.537,424.702v-87.33h7v87.33  H223.537z M407.292,424.702h-21v-242h21V424.702z M407.843,170.702L230.456,47.651c-2.057-1.428-4.783-1.428-6.84,0L46.23,170.702  H25.177l201.86-140.027l201.86,140.027H407.843z" data-original="#000000" class="active-path" data-old_color="#000000" fill="#CF0B48"/></g> </svg>
