<?xml version="1.0"?>
<svg xmlns="http://www.w3.org/2000/svg" height="512px" viewBox="0 0 496 496" width="512px" class=""><g><path d="m360 432c-6.441406 0-12.808594.863281-18.953125 2.480469 6.882813-18.9375 20.449219-34.289063 38.539063-43.320313l-7.160157-14.3125c-22.546875 11.265625-39.355469 30.648438-47.320312 54.558594l-3.714844 11.144531 2.074219-20.71875c2.710937-27.199219 14.855468-52.832031 34.191406-72.167969l-11.3125-11.3125c-16.320312 16.320313-28.097656 36.585938-34.34375 58.59375-6.246094-22.007812-18.023438-42.273437-34.34375-58.59375l-11.3125 11.3125c19.335938 19.335938 31.488281 44.96875 34.191406 72.167969l1.664063 16.582031c-.382813-.167968-.75-.359374-1.136719-.527343l-2.160156-6.480469c-7.964844-23.910156-24.773438-43.292969-47.316406-54.558594l-7.160157 14.3125c17.527344 8.761719 30.789063 23.464844 37.863281 41.59375-3.386718-.464844-6.808593-.753906-10.289062-.753906-31.089844 0-58.640625 19.175781-69.632812 48h-82.367188v-240.640625c5.046875.394531 10.390625.640625 16 .640625 16.039062 0 31.566406-3.664062 48.007812-7.542969 15.222657-3.59375 30.984376-7.121093 47.992188-8.058593v44.058593c0 7.65625 3.351562 14.886719 9.191406 19.847657 5.71875 4.847656 13.214844 6.941406 20.550782 5.734374 8.671874-1.429687 17.203124-3.445312 26.234374-5.574218 17.617188-4.167969 35.832032-8.464844 56.023438-8.464844 36.097656 0 66.054688 29.367188 66.351562 29.664062l13.648438 13.566407v-182.542969l-2.34375-2.34375c-1.398438-1.398438-34.832031-34.34375-77.65625-34.34375-7.664062 0-15.59375.863281-24 2.550781v-46.550781l-3.199219-2.398438c-1.394531-1.050781-34.625-25.601562-76.800781-25.601562-22.046875 0-41.167969 4.511719-59.671875 8.878906-15.503906 3.664063-30.152344 7.121094-44.328125 7.121094-5.617188 0-10.976562-.265625-16-.6875v-23.3125c0-13.230469-10.769531-24-24-24s-24 10.769531-24 24v456h-40v16h432v-16h-34.367188c-10.992187-28.824219-38.542968-48-69.632812-48zm-40-200v-109.078125c8.585938-1.945313 16.359375-2.921875 24-2.921875 30.28125 0 56.246094 20.671875 64 27.503906v139.519532c-13.871094-10.007813-37.089844-23.023438-64-23.023438-22.054688 0-41.183594 4.511719-59.695312 8.886719-8.761719 2.066406-17.03125 4.015625-25.167969 5.371093-2.695313.40625-5.433594-.3125-7.59375-2.152343-2.246094-1.914063-3.542969-4.699219-3.542969-7.648438v-5.289062l48.984375-5.441407c13.121094-1.46875 23.015625-12.527343 23.015625-25.726562zm-72 15.0625v-22.6875c21.550781 1.832031 40.0625 10.554688 50.40625 16.472656-.980469.480469-2.039062.839844-3.191406.96875zm-160-223.0625c0-4.40625 3.585938-8 8-8s8 3.59375 8 8v21.304688c-6.792969-1.128907-12.273438-2.382813-16-3.351563zm0 34.457031c10.367188 2.4375 27.574219 5.542969 48 5.542969 16.039062 0 31.566406-3.664062 48.007812-7.542969 17.601563-4.160156 35.816407-8.457031 55.992188-8.457031 29.785156 0 55.273438 14.601562 64 20.230469v157.371093c-13.65625-7.523437-36.960938-17.601562-64-17.601562-22.046875 0-41.167969 4.511719-59.671875 8.878906-15.503906 3.664063-30.152344 7.121094-44.328125 7.121094-21.558594 0-39.433594-3.824219-48-6.039062zm16 421.542969h-16v-245.542969c4.257812 1 9.679688 2.109375 16 3.078125zm115.824219 0c9.886719-19.433594 29.871093-32 52.175781-32 5.664062 0 11.144531.921875 16.382812 2.449219l.03125.085937.136719-.046875c15.328125 4.511719 28.273438 15.070313 35.625 29.511719zm121.808593 0c-3.199218-8.398438-7.769531-16-13.472656-22.519531 9.449219-6.121094 20.488282-9.480469 31.839844-9.480469 22.304688 0 42.289062 12.566406 52.175781 32zm0 0" data-original="#000000" class="active-path" data-old_color="#000000" fill="#FFFFFF"/><path d="m0 480h16v16h-16zm0 0" data-original="#000000" class="active-path" data-old_color="#000000" fill="#FFFFFF"/><path d="m480 480h16v16h-16zm0 0" data-original="#000000" class="active-path" data-old_color="#000000" fill="#FFFFFF"/></g> </svg>
